<svg width="28" height="28" viewBox="0 0 28 28" fill="none" xmlns="http://www.w3.org/2000/svg">
<path d="M27.2188 14C27.2188 14.2238 27.1299 14.4384 26.9716 14.5966C26.8134 14.7549 26.5988 14.8438 26.375 14.8438H14.8438V26.375C14.8438 26.5988 14.7549 26.8134 14.5966 26.9716C14.4384 27.1299 14.2238 27.2188 14 27.2188C13.7762 27.2188 13.5616 27.1299 13.4034 26.9716C13.2451 26.8134 13.1562 26.5988 13.1562 26.375V14.8438H1.625C1.40122 14.8438 1.18661 14.7549 1.02838 14.5966C0.870145 14.4384 0.78125 14.2238 0.78125 14C0.78125 13.7762 0.870145 13.5616 1.02838 13.4034C1.18661 13.2451 1.40122 13.1562 1.625 13.1562H13.1562V1.625C13.1562 1.40122 13.2451 1.18661 13.4034 1.02838C13.5616 0.870145 13.7762 0.78125 14 0.78125C14.2238 0.78125 14.4384 0.870145 14.5966 1.02838C14.7549 1.18661 14.8438 1.40122 14.8438 1.625V13.1562H26.375C26.5988 13.1562 26.8134 13.2451 26.9716 13.4034C27.1299 13.5616 27.2188 13.7762 27.2188 14Z" fill="#877AFF"/>
</svg>
